<svg width="36" height="36" viewBox="0 0 36 36" fill="none" xmlns="http://www.w3.org/2000/svg">
<rect width="36" height="36" rx="4" fill="url(#paint0_linear_501_620)"/>
<path d="M21.7084 10.6698L19.8569 10.6667C17.7768 10.6667 16.4325 12.0835 16.4325 14.2762V15.9404H14.5709C14.4101 15.9404 14.2798 16.0744 14.2798 16.2397V18.6509C14.2798 18.8162 14.4102 18.95 14.5709 18.95H16.4325V25.0344C16.4325 25.1996 16.5628 25.3334 16.7237 25.3334H19.1525C19.3134 25.3334 19.4437 25.1994 19.4437 25.0344V18.95H21.6203C21.7812 18.95 21.9114 18.8162 21.9114 18.6509L21.9123 16.2397C21.9123 16.1603 21.8816 16.0843 21.8271 16.0282C21.7726 15.972 21.6983 15.9404 21.6211 15.9404H19.4437V14.5297C19.4437 13.8516 19.601 13.5074 20.4608 13.5074L21.7081 13.5069C21.8688 13.5069 21.9991 13.3729 21.9991 13.2079V10.9689C21.9991 10.8039 21.869 10.6701 21.7084 10.6698Z" fill="white"/>
<defs>
<linearGradient id="paint0_linear_501_620" x1="-2.23517e-08" y1="2" x2="36" y2="35" gradientUnits="userSpaceOnUse">
<stop stop-color="#7572D9" stop-opacity="0.6"/>
<stop offset="0.794792" stop-color="#D62FC3" stop-opacity="0.6"/>
<stop offset="0.9999" stop-color="#B959C6" stop-opacity="0.6"/>
</linearGradient>
</defs>
</svg>
