<svg width="36" height="36" viewBox="0 0 36 36" fill="none" xmlns="http://www.w3.org/2000/svg">
<rect width="36" height="36" rx="4" fill="url(#paint0_linear_501_623)"/>
<path d="M25 13.8484C24.4847 14.067 23.9318 14.2153 23.3509 14.2815C23.9441 13.9414 24.3981 13.4019 24.6133 12.7611C24.0569 13.0761 23.4428 13.3048 22.7884 13.4287C22.2644 12.8935 21.519 12.5601 20.6923 12.5601C19.1062 12.5601 17.8202 13.7914 17.8202 15.3093C17.8202 15.5246 17.8456 15.7348 17.8946 15.9359C15.508 15.8211 13.3918 14.7263 11.9754 13.0626C11.7278 13.4681 11.587 13.9405 11.587 14.4448C11.587 15.3989 12.0944 16.2408 12.8643 16.7333C12.3936 16.7182 11.9509 16.5943 11.5634 16.3882V16.4225C11.5634 17.7544 12.5537 18.866 13.8668 19.119C13.6262 19.181 13.3725 19.2153 13.1101 19.2153C12.9246 19.2153 12.7453 19.1978 12.5694 19.1642C12.9351 20.2574 13.9954 21.0523 15.2517 21.0741C14.2693 21.8113 13.0305 22.2494 11.685 22.2494C11.4532 22.2494 11.2248 22.236 11 22.2117C12.2711 22.9933 13.7802 23.4489 15.4022 23.4489C20.6853 23.4489 23.5732 19.2589 23.5732 15.6251L23.5635 15.2691C24.1278 14.8837 24.6159 14.3996 25 13.8484Z" fill="white"/>
<defs>
<linearGradient id="paint0_linear_501_623" x1="-2.23517e-08" y1="2" x2="36" y2="35" gradientUnits="userSpaceOnUse">
<stop stop-color="#7572D9" stop-opacity="0.6"/>
<stop offset="0.747917" stop-color="#B959C6" stop-opacity="0.6"/>
<stop offset="1" stop-color="#D62FC3" stop-opacity="0.6"/>
</linearGradient>
</defs>
</svg>
