<svg width="36" height="36" viewBox="0 0 36 36" fill="none" xmlns="http://www.w3.org/2000/svg">
<rect width="36" height="36" rx="4" fill="url(#paint0_linear_501_617)"/>
<path d="M24.6538 15.2533C24.6225 14.5448 24.508 14.0578 24.3439 13.6357C24.1746 13.1878 23.9141 12.7867 23.5728 12.4533C23.2394 12.1147 22.8357 11.8515 22.3929 11.6849C21.9684 11.5208 21.4839 11.4062 20.7755 11.375C20.0617 11.3411 19.8351 11.3333 18.0249 11.3333C16.2146 11.3333 15.9881 11.3411 15.277 11.3723C14.5685 11.4036 14.0815 11.5182 13.6595 11.6822C13.2114 11.8515 12.8104 12.112 12.4769 12.4533C12.1383 12.7867 11.8753 13.1904 11.7086 13.6332C11.5444 14.0578 11.4299 14.5422 11.3986 15.2506C11.3648 15.9644 11.3569 16.191 11.3569 18.0012C11.3569 19.8115 11.3648 20.0381 11.396 20.7492C11.4272 21.4576 11.5419 21.9447 11.706 22.3667C11.8753 22.8147 12.1383 23.2158 12.4769 23.5492C12.8104 23.8878 13.2141 24.1509 13.6569 24.3176C14.0815 24.4817 14.5659 24.5962 15.2744 24.6275C15.9854 24.6588 16.2121 24.6665 18.0223 24.6665C19.8326 24.6665 20.0592 24.6588 20.7703 24.6275C21.4787 24.5962 21.9658 24.4817 22.3877 24.3176C23.2838 23.9711 23.9922 23.2627 24.3387 22.3667C24.5027 21.9421 24.6174 21.4576 24.6486 20.7492C24.6798 20.0381 24.6877 19.8115 24.6877 18.0012C24.6877 16.191 24.685 15.9644 24.6538 15.2533ZM23.4531 20.6971C23.4244 21.3482 23.315 21.6999 23.2239 21.9343C22.9998 22.5151 22.5388 22.9761 21.9579 23.2002C21.7235 23.2914 21.3694 23.4007 20.7207 23.4293C20.0175 23.4607 19.8066 23.4684 18.0275 23.4684C16.2485 23.4684 16.035 23.4607 15.3342 23.4293C14.6831 23.4007 14.3314 23.2914 14.097 23.2002C13.808 23.0934 13.5449 22.9241 13.3313 22.7027C13.1099 22.4865 12.9406 22.226 12.8338 21.9369C12.7426 21.7025 12.6332 21.3482 12.6046 20.6997C12.5733 19.9964 12.5656 19.7854 12.5656 18.0064C12.5656 16.2274 12.5733 16.0138 12.6046 15.3132C12.6332 14.662 12.7426 14.3104 12.8338 14.076C12.9406 13.7868 13.1099 13.5238 13.3339 13.3102C13.55 13.0888 13.8105 12.9195 14.0997 12.8127C14.3341 12.7216 14.6884 12.6122 15.3369 12.5835C16.0402 12.5523 16.2512 12.5444 18.0301 12.5444C19.8117 12.5444 20.0227 12.5523 20.7234 12.5835C21.3745 12.6122 21.7262 12.7216 21.9606 12.8127C22.2497 12.9195 22.5128 13.0888 22.7263 13.3102C22.9477 13.5264 23.117 13.7868 23.2239 14.076C23.315 14.3104 23.4244 14.6646 23.4531 15.3132C23.4843 16.0165 23.4922 16.2274 23.4922 18.0064C23.4922 19.7854 23.4843 19.9938 23.4531 20.6971Z" fill="white"/>
<path d="M18.0249 14.5761C16.134 14.5761 14.5997 16.1102 14.5997 18.0012C14.5997 19.8923 16.134 21.4264 18.0249 21.4264C19.9159 21.4264 21.45 19.8923 21.45 18.0012C21.45 16.1102 19.9159 14.5761 18.0249 14.5761ZM18.0249 20.223C16.7982 20.223 15.8031 19.2281 15.8031 18.0012C15.8031 16.7744 16.7982 15.7794 18.0249 15.7794C19.2517 15.7794 20.2467 16.7744 20.2467 18.0012C20.2467 19.2281 19.2517 20.223 18.0249 20.223Z" fill="white"/>
<path d="M22.3852 14.4407C22.3852 14.8822 22.0272 15.2403 21.5855 15.2403C21.1439 15.2403 20.7859 14.8822 20.7859 14.4407C20.7859 13.999 21.1439 13.641 21.5855 13.641C22.0272 13.641 22.3852 13.999 22.3852 14.4407Z" fill="white"/>
<defs>
<linearGradient id="paint0_linear_501_617" x1="-2.23517e-08" y1="2" x2="36" y2="35" gradientUnits="userSpaceOnUse">
<stop stop-color="#7572D9" stop-opacity="0.6"/>
<stop offset="0.779167" stop-color="#D62FC3" stop-opacity="0.6"/>
<stop offset="0.9999" stop-color="#B959C6" stop-opacity="0.6"/>
</linearGradient>
</defs>
</svg>
