<svg width="24" height="24" viewBox="0 0 24 24" fill="none" xmlns="http://www.w3.org/2000/svg">
<path fill-rule="evenodd" clip-rule="evenodd" d="M21.7048 4.59154C22.0164 3.18588 20.7092 1.91748 19.2939 2.32708L3.63738 6.88281L3.48628 6.93304C2.0167 7.48611 1.79121 9.53286 3.16768 10.3802L9.64322 14.3661L13.539 20.8202L13.6265 20.9534C14.5398 22.2329 16.562 21.923 17.0231 20.372L21.6682 4.73251L21.7048 4.59154ZM19.7849 3.75323C20.0737 3.72222 20.3204 4.00312 20.2305 4.30473L15.5852 19.9448L15.5547 20.0214C15.4096 20.3069 14.9988 20.336 14.8232 20.0451L11.1352 13.9361L16.3877 8.64975L16.4601 8.56539C16.6769 8.27106 16.6513 7.85447 16.3842 7.5891L16.2998 7.51676C16.0055 7.29988 15.5889 7.32548 15.3235 7.59263L10.0782 12.8721L3.95398 9.10284L3.88786 9.05318C3.65003 8.83652 3.73008 8.41781 4.05598 8.32322L19.7119 3.76765L19.7849 3.75323Z" fill="url(#paint0_linear_501_648)"/>
<defs>
<linearGradient id="paint0_linear_501_648" x1="12.0006" y1="2.24902" x2="12.0006" y2="21.7503" gradientUnits="userSpaceOnUse">
<stop stop-color="#EA00AD"/>
<stop offset="1" stop-color="#8A40FF"/>
</linearGradient>
</defs>
</svg>
